<?xml version="1.0" standalone="no"?><!DOCTYPE svg PUBLIC "-//W3C//DTD SVG 1.1//EN" "http://www.w3.org/Graphics/SVG/1.1/DTD/svg11.dtd"><svg t="1707299304752" class="icon" viewBox="0 0 1024 1024" version="1.1" xmlns="http://www.w3.org/2000/svg" p-id="5700" xmlns:xlink="http://www.w3.org/1999/xlink" width="200" height="200"><path d="M841.7 615.2s79.2-9.6 87.5-25.6c4.9-9.5 13.5-60.5 2.4-82.1-9.6-18.7-94.2-28.4-94.2-28.4s36.9-13.2 44.7-33.6c7.8-20.3 4.6-63.3-31-89.3-18.9-13.9-33-10.3-33-10.3s-42.3 6.6-109.2 9.8c-55.8 2.7-84.8 2.2-84.8 2.2s-27.3-1-36-15.3c-7.8-12.7-11.3-27.1-10.5-38.8 0.8-11.7 10.6-17.8 14.6-39.4 0.8-4.1 2.3 13.4 0.1-52-1.8-54.3-16.1-125.1-55.2-141-35.7-14.5-88.7-2.8-88.7-2.8S423 81.4 414.6 111c-7.4 26.2 28.1 91.9-3.4 196.4-24.4 81.3-73.2 147.5-73.2 147.5s-21.7 12-32.8 34.7c-9.9 20.2-20.8 51.5-20.8 51.5s-17.3 58.6-17.3 109.9c0 60.2 13.1 114.5 13.1 114.5s14.2 47 34.4 71.8c21.4 26.3 64.5 30.3 64.5 30.3s112 57 228.8 51.9c230.9-10 230.1-22.3 255.1-39.8 42.8-29.9 40.3-73 38-79.4-7-19.5-63.8-47.8-63.8-47.8s79-8.7 87-24.7c9.8-19.6 14.9-59.9 7.8-77.2-8.1-19.5-90.3-35.4-90.3-35.4zM244.3 381.7c-22.3-19.9-64.3-8.8-86.5 28.2-94.4 157.4-94.4 354.8 0 512.1 22.2 37 64.1 48.1 86.5 28.3 22.5-19.8 23-56.3 6.6-84.1-73.8-123-73.8-277.5 0-400.5 16.4-27.7 15.9-64.2-6.6-84z" fill="#ffffff" p-id="5701"></path></svg>