<?xml version="1.0" standalone="no"?><!DOCTYPE svg PUBLIC "-//W3C//DTD SVG 1.1//EN" "http://www.w3.org/Graphics/SVG/1.1/DTD/svg11.dtd"><svg t="1707298667829" class="icon" viewBox="0 0 1024 1024" version="1.1" xmlns="http://www.w3.org/2000/svg" p-id="2364" xmlns:xlink="http://www.w3.org/1999/xlink" width="200" height="200"><path d="M0 0m192 0l640 0q192 0 192 192l0 640q0 192-192 192l-640 0q-192 0-192-192l0-640q0-192 192-192Z" fill="#000000" p-id="2365"></path><path d="M479.808 828.032v77.888h-389.76v-77.888h389.76zM389.824 131.84v293.888c-1.152 57.472-40 141.76-141.952 141.76-89.344 0-139.968-67.584-142.08-70.4l68.224-50.048c0.896 1.28 28.096 35.968 73.856 35.968 49.6 0 56.576-40.896 57.344-58.496V131.84h84.608z m137.152-0.192H531.2c68.48 0.832 136.832 0.384 205.376 0.384 53.376 0 87.552 22.08 104.448 67.136 18.368 49.088 5.952 99.84-32.384 132.48-3.712 3.2-7.744 5.888-16.128 12.16 49.984 22.08 74.176 57.28 75.072 108.352 0.768 47.424-22.528 78.912-63.744 98.304-21.632 10.304-45.056 16-69.12 16.128H507.392V545.28c0.576-129.984 0.576-259.84 0-389.824v-23.744h19.648z m169.92 255.36l-20.8 0.192v0.192h-67.2v93.44h113.28c27.328-1.664 43.52-21.696 42.56-47.616-1.024-28.096-18.368-45.12-47.168-46.016-13.696-0.448-27.584 0-41.472 0z m-5.824-169.472h-11.008l-11.904 0.256h-59.52v35.264l0.128 23.872v11.776l-0.128 19.264h20.608c3.008 0.064 12.928 0.256 25.344 0.256h15.744a635.52 635.52 0 0 0 38.016-1.152c27.328-2.112 40.576-18.816 40.128-45.504-0.448-27.008-14.144-41.6-41.792-43.584a255.168 255.168 0 0 0-15.616-0.448z" fill="#FFFFFF" p-id="2366"></path></svg>