<?xml version="1.0" standalone="no"?><!DOCTYPE svg PUBLIC "-//W3C//DTD SVG 1.1//EN" "http://www.w3.org/Graphics/SVG/1.1/DTD/svg11.dtd"><svg t="1708352880948" class="icon" viewBox="0 0 1225 1024" version="1.1" xmlns="http://www.w3.org/2000/svg" p-id="2342" xmlns:xlink="http://www.w3.org/1999/xlink" width="23.92578125" height="20"><path d="M629.8796648-18.12455326c12.56382657-1.4382838 25.64585803 1.37482992 36.14744044 8.55566914 15.82111444 10.21604075 27.02068797 25.81506884 36.47528518 41.78424183 42.92640855 71.94588682 86.13835731 143.73313819 129.04361362 215.70017727C888.6754585 344.14302528 945.82606377 440.35994019 1002.80745967 536.69318743c39.42588058 66.6263533 78.94694126 133.21040498 118.63721275 199.68870121 26.14291212 44.40699395 53.10014621 88.34866001 78.09031619 133.42191593 10.7659733 18.8668914 16.6777395 40.65265198 15.78938826 62.42783717-0.62396037 16.83637343-3.68031268 34.13807475-12.5215235 48.73241781-12.40519263 20.58014-33.19684505 35.11103066-55.74404914 42.68316848-12.02447088 4.32542533-24.64117593 7.26544532-37.46939336 7.2865976-139.93649462-0.05287847-279.8729878 0.04230307-419.79890553 0.0317262-12.03504627-0.30669248-24.27102958-1.69209781-35.56578317-6.04924933-8.25955203-3.52167875-16.3921978-7.8576795-22.85389657-14.192472-11.03036269-10.91403182-18.17947716-26.39672612-16.26529006-42.12266051 0.99410818-10.98806111 3.68031268-21.82806219 8.20667355-31.89604584 4.38887919-10.33237307 10.56503628-19.74466723 15.9268714-29.57998475 23.40382913-41.74193876 47.91809731-82.85991715 73.41589679-123.3645106 8.16437198-12.74361279 15.27118336-26.51305847 26.56593696-36.87715775 12.0033186-10.98806111 27.07356643-19.6071841 43.58209511-20.72820001 13.27239307-0.54993108 26.32269686 4.03988365 37.38478723 11.15727045 12.4792219 7.31832379 22.30396549 19.50142863 25.59298103 33.71504991 4.74845015 17.98911554-0.35957094 36.88773314-7.98458723 53.32223403-8.55567058 18.66595438-20.74935081 35.60808477-27.29565425 55.18354266-1.19504372 4.45233307-2.81311227 10.0679822 0.50762951 13.99153349 3.37362021 3.17268321 8.0586165 4.42060541 12.44749569 5.52047053 12.69073431 2.82368766 25.78334116 2.09397183 38.6961633 2.17857503 47.59025257-0.0105754 95.18050512 0 142.77075768 0 9.42286955-0.15863394 18.85631598 0.31726789 28.27918555-0.23266321 6.80011891-0.78259578 14.21362278-1.89303483 19.50142863-6.6414835 3.48995257-3.08807854 3.92355131-8.3018551 2.60159983-12.53210038-2.89771692-9.36999255-7.88940569-17.90451088-12.81764055-26.32269687-126.89676477-216.70485938-253.08496303-433.83274358-381.31425614-649.76558407-4.1879422-6.93760058-7.78365021-14.46743679-13.78002257-20.07251049-2.96117079-2.84483993-7.35005001-4.46290846-11.38993364-3.28901557-3.43707409 1.23734679-5.76370767 4.26197146-8.04803963 6.94817747-5.64737678 7.20199147-10.70251942 14.86930933-15.34521264 22.7587165-22.09245306 35.90420183-43.23310103 72.37948703-64.8813785 108.54807825-124.68646208 209.85186348-249.39407493 419.69315007-374.06996157 629.55558895-7.73077175 14.23477358-15.9585976 28.20515629-24.92671615 41.69963717-7.87883028 11.59087067-17.43918299 22.45202401-29.75977242 29.43192766-14.52031525 8.39703518-32.45655234 11.7283538-48.7324178 6.91644979-11.87641234-3.6697373-23.36152606-9.64495737-31.8643182-18.8668914-10.7659733-10.66021635-15.53557424-26.25924447-14.98564167-41.18143228 0.54993108-15.71535899 5.80601074-31.02884542 13.72714409-44.52332481 75.70022877-128.58886258 151.88693476-256.90275888 228.35918244-385.04744732 39.34127593-66.41484087 78.50276562-132.92486331 118.06612937-199.20222102 40.01811475-67.15513358 80.13140957-134.24681475 119.96973958-201.50770529 22.22993622-37.88184131 44.61850637-75.67907796 67.98003243-112.88408048 7.18084066-11.79180767 16.47680249-22.36741935 27.66579911-30.51063905 9.17963095-6.26076174 19.48027635-11.63317227 30.72215294-12.62728045z" fill="#1296db" p-id="2343"></path><path d="M623.51314612 478.92919722c18.85631598-3.03520007 38.83364644 1.47000999 54.46440074 12.45806964 11.86583694 9.15848015 20.10423819 22.88562426 22.48375022 37.70205655 1.61806853 11.2947536 0.51820489 23.00195511-3.63801109 33.67274687-3.19383401 9.23250942-7.77307482 17.91508628-12.87051906 26.23809367-72.71790571 122.23292077-145.41466061 244.47641545-218.14314172 366.70933473-9.30653869 15.30290957-17.78817855 31.16632708-28.51185026 45.54916067-7.79422562 9.63438197-17.53436453 17.81990621-28.77623962 23.15001364-23.76340007 12.65900663-54.77109322 4.93881029-72.84481343-14.09729043-9.15848015-9.19020635-14.53089066-21.81748679-15.22888029-34.73030892-1.03640979-13.36757313 1.91418562-26.88320483 7.96343494-38.80192022 5.31953203-11.59087067 11.61202146-22.68468723 18.17947717-33.5987176 31.95949825-53.76640963 63.63345629-107.7020301 95.49777448-161.52131821 43.61382278-74.00813095 87.94678747-147.58266171 131.83557507-221.42158187 4.66384548-8.39703518 10.48043162-16.13838381 17.01615961-23.16058904 8.8094846-8.94696774 19.98790583-16.18068541 32.57288324-18.14774948z" fill="#1296db" p-id="2344"></path></svg>